<svg width="24" height="24" viewBox="0 0 24 24" xmlns="http://www.w3.org/2000/svg">
  <path d="M4.667 7.7146C5.037 7.7146 5.333 8.001 5.333 8.35684V14.3578C5.333 14.6674 5.39625 14.9739 5.51913 15.2599C5.64202 15.5459 5.82213 15.8058 6.04918 16.0247C6.27624 16.2435 6.54578 16.4171 6.84241 16.5355C7.13905 16.6539 7.45696 16.7147 7.778 16.7146H16.667C17.037 16.7146 17.333 17.001 17.333 17.3578C17.333 17.7146 17.036 18 16.667 18H7.777C6.77552 17.9993 5.81529 17.6153 5.10714 16.9324C4.39898 16.2495 4.00079 15.3235 4 14.3578V8.35684C4 8.00004 4.297 7.7146 4.667 7.7146Z"/>
  <path d="M7 7.28592H20C19.9996 6.94499 19.8472 6.61813 19.5764 6.37706C19.3056 6.13599 18.9384 6.00038 18.5554 6H8.44463C8.06162 6.00038 7.69442 6.13599 7.4236 6.37706C7.15277 6.61813 7.00043 6.94499 7 7.28592ZM7 7.92888V13.7148C7 14.4236 7.64756 15 8.44463 15H18.5554C18.9382 14.9996 19.3053 14.8641 19.5761 14.6232C19.8469 14.3823 19.9994 14.0556 20 13.7148V7.92888H7ZM8.44463 13.4993C8.44463 12.9062 8.98413 12.4289 9.64713 12.4289H12.2967C12.9629 12.4289 13.5 12.9091 13.5 13.4993C13.4996 13.5562 13.474 13.6107 13.4289 13.651C13.3838 13.6913 13.3226 13.7142 13.2587 13.7148H8.68594C8.62199 13.7142 8.56086 13.6913 8.51572 13.651C8.47058 13.6107 8.44505 13.5562 8.44463 13.4993ZM10.9715 9.21408C11.3546 9.21408 11.7221 9.34956 11.993 9.59072C12.2639 9.83187 12.4161 10.159 12.4161 10.5C12.4161 10.841 12.2639 11.1681 11.993 11.4093C11.7221 11.6504 11.3546 11.7859 10.9715 11.7859C10.5884 11.7859 10.2209 11.6504 9.95 11.4093C9.67908 11.1681 9.52687 10.841 9.52687 10.5C9.52687 10.159 9.67908 9.83187 9.95 9.59072C10.2209 9.34956 10.5884 9.21408 10.9715 9.21408ZM14.9446 9.53592C14.9446 9.35873 15.1071 9.21408 15.3054 9.21408H18.1946C18.2853 9.22071 18.3698 9.25746 18.4315 9.31702C18.4931 9.37657 18.5273 9.45459 18.5273 9.53556C18.5273 9.61653 18.4931 9.69455 18.4315 9.7541C18.3698 9.81366 18.2853 9.8504 18.1946 9.85704H15.3054C15.2098 9.85666 15.1183 9.8227 15.0508 9.76257C14.9832 9.70243 14.9451 9.62097 14.9446 9.53592ZM14.9446 10.8218C14.9446 10.6446 15.1071 10.5 15.3054 10.5H18.1946C18.2853 10.5066 18.3698 10.5434 18.4315 10.6029C18.4931 10.6625 18.5273 10.7405 18.5273 10.8215C18.5273 10.9025 18.4931 10.9805 18.4315 11.04C18.3698 11.0996 18.2853 11.1363 18.1946 11.143H15.3054C15.2098 11.1426 15.1183 11.1086 15.0508 11.0485C14.9832 10.9883 14.9451 10.9069 14.9446 10.8218ZM14.9446 12.107C14.9446 11.9306 15.1071 11.7859 15.3054 11.7859H18.1946C18.3929 11.7859 18.5554 11.9306 18.5554 12.107C18.5554 12.2842 18.3929 12.4289 18.1946 12.4289H15.3054C15.2097 12.4285 15.1181 12.3944 15.0505 12.3342C14.9829 12.2739 14.9448 12.1922 14.9446 12.107Z"/>
</svg>
