<svg width="24" height="24" viewBox="0 0 24 24" xmlns="http://www.w3.org/2000/svg">
  <path d="M11.111 5C10.8753 5.00026 10.6493 5.09254 10.4827 5.25661C10.316 5.42067 10.2223 5.64311 10.222 5.87512V7.62537C10.222 8.1087 10.619 8.50049 11.112 8.50049H12.889C13.1249 8.50023 13.351 8.40781 13.5177 8.24354C13.6844 8.07926 13.778 7.85657 13.778 7.62438V5.87611C13.7777 5.64392 13.6839 5.42133 13.517 5.25724C13.3501 5.09315 13.1239 5.00098 12.888 5.00098L11.111 5ZM9.333 6.75025H5.778C5.30661 6.75077 4.85467 6.93533 4.52135 7.26346C4.18802 7.59158 4.00053 8.03646 4 8.50049V17.2498C4.00053 17.7138 4.18802 18.1587 4.52135 18.4868C4.85467 18.8149 5.30661 18.9995 5.778 19H18.222C18.6934 18.9995 19.1453 18.8149 19.4787 18.4868C19.812 18.1587 19.9995 17.7138 20 17.2498V8.50049C19.9995 8.03646 19.812 7.59158 19.4787 7.26346C19.1453 6.93533 18.6934 6.75077 18.222 6.75025H14.667V8.06145H18.222C18.467 8.06145 18.667 8.25833 18.667 8.49951V17.2488C18.667 17.4899 18.467 17.6868 18.222 17.6868H5.778C5.66006 17.6866 5.54703 17.6403 5.46363 17.5582C5.38023 17.4761 5.33326 17.3649 5.333 17.2488V8.50049C5.333 8.25932 5.533 8.06244 5.778 8.06244H9.333V6.75025ZM12 13.3122C12.237 13.3177 12.4727 13.2766 12.6933 13.1911C12.9138 13.1057 13.1148 12.9777 13.2844 12.8146C13.454 12.6516 13.5888 12.4568 13.6808 12.2418C13.7728 12.0268 13.8202 11.7958 13.8202 11.5624C13.8202 11.3291 13.7728 11.0981 13.6808 10.8831C13.5888 10.668 13.454 10.4733 13.2844 10.3102C13.1148 10.1472 12.9138 10.0192 12.6933 9.93376C12.4727 9.84832 12.237 9.80715 12 9.81268C11.5359 9.82352 11.0945 10.0126 10.7701 10.3396C10.4457 10.6666 10.2642 11.1054 10.2642 11.5624C10.2642 12.0194 10.4457 12.4583 10.7701 12.7853C11.0945 13.1122 11.5359 13.3014 12 13.3122ZM11.111 14.1883C10.8191 14.188 10.5301 14.2444 10.2604 14.3543C9.99066 14.4641 9.74561 14.6252 9.53922 14.8284C9.33284 15.0315 9.16918 15.2728 9.0576 15.5383C8.94603 15.8038 8.88874 16.0883 8.889 16.3756C8.889 16.6158 9.089 16.8127 9.333 16.8127H14.667C14.911 16.8127 15.111 16.6158 15.111 16.3756C15.1114 16.0882 15.0542 15.8036 14.9427 15.538C14.8312 15.2723 14.6675 15.031 14.4611 14.8277C14.2547 14.6245 14.0096 14.4633 13.7399 14.3534C13.4701 14.2435 13.181 14.1871 12.889 14.1873H11.11L11.111 14.1883Z" />
</svg>
