<svg width="25" height="24" viewBox="0 0 25 24" xmlns="http://www.w3.org/2000/svg">
  <path d="M8 4C8.41563 4 8.75 4.33438 8.75 4.75V6H13.25V4.75C13.25 4.33438 13.5844 4 14 4C14.4156 4 14.75 4.33438 14.75 4.75V6H16C17.1031 6 18 6.89688 18 8V10H5.5V18C5.5 18.275 5.725 18.5 6 18.5H14.0156C14.4 19.0875 14.8906 19.5969 15.4625 20H6C4.89688 20 4 19.1031 4 18V8C4 6.89688 4.89688 6 6 6H7.25V4.75C7.25 4.33438 7.58438 4 8 4Z" />
  <path d="M19.8304 15.1011H17.4196V14.307H19.8304V15.1011ZM16.2143 12.7188H21.0357C21.5683 12.7188 22 13.1928 22 13.7776V15.6305C22 16.2153 21.5683 16.6893 21.0357 16.6893H16.2143C15.6817 16.6893 15.25 16.2153 15.25 15.6305V13.7776C15.25 13.1928 15.6817 12.7188 16.2143 12.7188ZM21.0357 13.5129H16.2143C16.0811 13.5129 15.9732 13.6314 15.9732 13.7776V15.6305C15.9732 15.7767 16.0811 15.8952 16.2143 15.8952H21.0357C21.1688 15.8952 21.2768 15.7767 21.2768 15.6305V13.7776C21.2768 13.6314 21.1688 13.5129 21.0357 13.5129Z" />
</svg>
