<svg width="24" height="24" viewBox="0 0 24 24" xmlns="http://www.w3.org/2000/svg">
<path d="M8.57143 3C9.04643 3 9.42857 3.37617 9.42857 3.84375V5.25H14.5714V3.84375C14.5714 3.37617 14.9536 3 15.4286 3C15.9036 3 16.2857 3.37617 16.2857 3.84375V5.25H17.7143C18.975 5.25 20 6.25898 20 7.5V8.0625V9.75V18.75C20 19.991 18.975 21 17.7143 21H6.28571C5.025 21 4 19.991 4 18.75V9.75V8.0625V7.5C4 6.25898 5.025 5.25 6.28571 5.25H7.71429V3.84375C7.71429 3.37617 8.09643 3 8.57143 3ZM18.2857 9.75H5.71429V18.75C5.71429 19.0594 5.97143 19.3125 6.28571 19.3125H17.7143C18.0286 19.3125 18.2857 19.0594 18.2857 18.75V9.75ZM8 12H11.4286C11.7429 12 12 12.2531 12 12.5625V15.9375C12 16.2469 11.7429 16.5 11.4286 16.5H8C7.68571 16.5 7.42857 16.2469 7.42857 15.9375V12.5625C7.42857 12.2531 7.68571 12 8 12Z" />
</svg>
