<svg width="24" height="24" viewBox="0 0 24 24" xmlns="http://www.w3.org/2000/svg">
<path fill-rule="evenodd" clip-rule="evenodd" d="M9.33333 6.75C9.33333 5.78477 10.1306 5 11.1111 5H18.2222C19.2028 5 20 5.78477 20 6.75V17.25C20 18.2152 19.2028 19 18.2222 19H11.1111C10.1306 19 9.33333 18.2152 9.33333 17.25V6.75ZM16.6972 13.1331C17.4305 13.1331 18.025 12.5139 18.025 11.75C18.025 10.9861 17.4305 10.3669 16.6972 10.3669C16.5258 10.3669 16.363 10.4005 16.2137 10.4613L15.9105 9.65406C16.1548 9.55446 16.4205 9.5 16.6972 9.5C17.8901 9.5 18.8571 10.5074 18.8571 11.75C18.8571 12.9926 17.8901 14 16.6972 14C15.696 14 14.8548 13.2907 14.6095 12.3287L14.3082 11.4025L14.303 11.4039C14.1556 10.8072 13.6352 10.3669 13.0171 10.3669C12.2838 10.3669 11.6893 10.9861 11.6893 11.75C11.6893 12.5139 12.2838 13.1331 13.0171 13.1331C13.1889 13.1331 13.3521 13.0993 13.5017 13.0382L13.8056 13.8452C13.5608 13.9452 13.2945 14 13.0171 14C11.8242 14 10.8571 12.9926 10.8571 11.75C10.8571 10.5074 11.8242 9.50001 13.0171 9.50001C13.987 9.50001 14.8068 10.1657 15.08 11.0818L15.0822 11.081L15.4024 12.065L15.4074 12.0804L15.4113 12.0961C15.5587 12.6928 16.0792 13.1331 16.6972 13.1331Z" />
<path d="M6.66667 17.0313V6.96875C6.66667 6.60508 6.96389 6.3125 7.33333 6.3125C7.70278 6.3125 8 6.60508 8 6.96875V17.0313C8 17.3949 7.70278 17.6875 7.33333 17.6875C6.96389 17.6875 6.66667 17.3949 6.66667 17.0313Z" />
<path d="M4 15.7187V8.28125C4 7.91758 4.29722 7.625 4.66667 7.625C5.03611 7.625 5.33333 7.91758 5.33333 8.28125V15.7187C5.33333 16.0824 5.03611 16.375 4.66667 16.375C4.29722 16.375 4 16.0824 4 15.7187Z"/>
</svg>
