<svg width="24" height="24" viewBox="0 0 24 24" xmlns="http://www.w3.org/2000/svg">
<path d="M9.42857 3.84375C9.42857 3.37617 9.04643 3 8.57143 3C8.09643 3 7.71429 3.37617 7.71429 3.84375V5.25H6.28571C5.025 5.25 4 6.25898 4 7.5V8.0625V9.75V18.75C4 19.991 5.025 21 6.28571 21H17.7143C18.975 21 20 19.991 20 18.75V9.75V8.0625V7.5C20 6.25898 18.975 5.25 17.7143 5.25H16.2857V3.84375C16.2857 3.37617 15.9036 3 15.4286 3C14.9536 3 14.5714 3.37617 14.5714 3.84375V5.25H9.42857V3.84375ZM5.71429 9.75H18.2857V18.75C18.2857 19.0594 18.0286 19.3125 17.7143 19.3125H6.28571C5.97143 19.3125 5.71429 19.0594 5.71429 18.75V9.75ZM12 11.1562C11.525 11.1562 11.1429 11.5324 11.1429 12V13.6875H9.42857C8.95357 13.6875 8.57143 14.0637 8.57143 14.5312C8.57143 14.9988 8.95357 15.375 9.42857 15.375H11.1429V17.0625C11.1429 17.5301 11.525 17.9062 12 17.9062C12.475 17.9062 12.8571 17.5301 12.8571 17.0625V15.375H14.5714C15.0464 15.375 15.4286 14.9988 15.4286 14.5312C15.4286 14.0637 15.0464 13.6875 14.5714 13.6875H12.8571V12C12.8571 11.5324 12.475 11.1562 12 11.1562Z" />
</svg>
