<svg width="24" height="24" viewBox="0 0 24 24"><path d="M10 15.5H17C17.275 15.5 17.5 15.275 17.5 15V8H16C15.4469 8 15 7.55313 15 7V5.5H10C9.725 5.5 9.5 5.725 9.5 6V15C9.5 15.275 9.725 15.5 10 15.5ZM17 17H10C8.89688 17 8 16.1031 8 15V6C8 4.89688 8.89688 4 10 4H15.1719C15.7031 4 16.2125 4.20938 16.5875 4.58438L18.4156 6.4125C18.7906 6.7875 19 7.29688 19 7.82812V15C19 16.1031 18.1031 17 17 17ZM5.75 7C6.16563 7 6.5 7.33437 6.5 7.75V15.75C6.5 17.2687 7.73125 18.5 9.25 18.5H15.25C15.6656 18.5 16 18.8344 16 19.25C16 19.6656 15.6656 20 15.25 20H9.25C6.90313 20 5 18.0969 5 15.75V7.75C5 7.33437 5.33437 7 5.75 7Z" /></svg>
