<svg width="24" height="24" viewBox="0 0 24 24" xmlns="http://www.w3.org/2000/svg">
  <path d="M4 7.71456H20C19.9995 7.25999 19.812 6.82418 19.4787 6.50275C19.1453 6.18132 18.6934 6.00051 18.222 6H5.778C5.30661 6.00051 4.85467 6.18132 4.52135 6.50275C4.18802 6.82418 4.00053 7.25999 4 7.71456ZM4 8.57184V16.2864C4 17.2314 4.797 18 5.778 18H18.222C18.6932 17.9995 19.145 17.8188 19.4783 17.4976C19.8116 17.1764 19.9992 16.7408 20 16.2864V8.57184H4ZM5.778 15.999C5.778 15.2083 6.442 14.5718 7.258 14.5718H10.519C11.339 14.5718 12 15.2121 12 15.999C11.9995 16.0749 11.9681 16.1476 11.9125 16.2013C11.8569 16.2551 11.7817 16.2856 11.703 16.2864H6.075C5.9963 16.2856 5.92106 16.2551 5.86551 16.2013C5.80995 16.1476 5.77852 16.0749 5.778 15.999ZM8.888 10.2854C9.35955 10.2854 9.8118 10.4661 10.1452 10.7876C10.4787 11.1092 10.666 11.5453 10.666 12C10.666 12.4547 10.4787 12.8908 10.1452 13.2124C9.8118 13.5339 9.35955 13.7146 8.888 13.7146C8.41644 13.7146 7.9642 13.5339 7.63076 13.2124C7.29732 12.8908 7.11 12.4547 7.11 12C7.11 11.5453 7.29732 11.1092 7.63076 10.7876C7.9642 10.4661 8.41644 10.2854 8.888 10.2854ZM13.778 10.7146C13.778 10.4783 13.978 10.2854 14.222 10.2854H17.778C17.8896 10.2943 17.9936 10.3433 18.0695 10.4227C18.1453 10.5021 18.1875 10.6061 18.1875 10.7141C18.1875 10.822 18.1453 10.9261 18.0695 11.0055C17.9936 11.0849 17.8896 11.1339 17.778 11.1427H14.222C14.1044 11.1422 13.9918 11.0969 13.9086 11.0168C13.8255 10.9366 13.7785 10.828 13.778 10.7146ZM13.778 12.4291C13.778 12.1929 13.978 12 14.222 12H17.778C17.8896 12.0088 17.9936 12.0578 18.0695 12.1372C18.1453 12.2167 18.1875 12.3207 18.1875 12.4286C18.1875 12.5366 18.1453 12.6406 18.0695 12.72C17.9936 12.7994 17.8896 12.8484 17.778 12.8573H14.222C14.1044 12.8568 13.9918 12.8115 13.9086 12.7313C13.8255 12.6511 13.7785 12.5425 13.778 12.4291ZM13.778 14.1427C13.778 13.9074 13.978 13.7146 14.222 13.7146H17.778C18.022 13.7146 18.222 13.9074 18.222 14.1427C18.222 14.379 18.022 14.5718 17.778 14.5718H14.222C14.1042 14.5713 13.9915 14.5259 13.9083 14.4455C13.8251 14.3651 13.7783 14.2563 13.778 14.1427Z" />
</svg>
