<svg width="24" height="24" viewBox="0 0 24 24" fill="none" xmlns="http://www.w3.org/2000/svg">
<path fill-rule="evenodd" clip-rule="evenodd" d="M5.30313 5C4.58438 5 4 5.58438 4 6.30313C4 6.60313 4.10312 6.89375 4.29375 7.125L9.5 13.5156V15.5094C9.5 15.8906 9.67188 16.25 9.97188 16.4875L12.3188 18.35C12.1125 17.7719 12 17.15 12 16.5C12 16.3938 12.0031 16.2906 12.0094 16.1875L11 15.3875V13.25C11 13.075 10.9406 12.9094 10.8313 12.775L5.71875 6.5H18.3219L16.1289 9.5H17.9861L19.7469 7.09063C19.9125 6.86563 20 6.59375 20 6.31562C20 5.5875 19.4125 5 18.6844 5H5.30313Z" />
<path d="M18.0714 16.9382H15.9286V16.2323H18.0714V16.9382ZM18.0714 12.4676H15.9286V11.7617H18.0714V12.4676ZM14.8571 10.35H19.1429C19.6163 10.35 20 10.7714 20 11.2912V12.9382C20 13.458 19.6163 13.8794 19.1429 13.8794H14.8571C14.3838 13.8794 14 13.458 14 12.9382V11.2912C14 10.7714 14.3838 10.35 14.8571 10.35ZM19.1429 11.0559H14.8571C14.7388 11.0559 14.6429 11.1612 14.6429 11.2912V12.9382C14.6429 13.0682 14.7388 13.1735 14.8571 13.1735H19.1429C19.2612 13.1735 19.3571 13.0682 19.3571 12.9382V11.2912C19.3571 11.1612 19.2612 11.0559 19.1429 11.0559ZM14.8571 14.8206H19.1429C19.6163 14.8206 20 15.2419 20 15.7617V17.4088C20 17.9286 19.6163 18.35 19.1429 18.35H14.8571C14.3838 18.35 14 17.9286 14 17.4088V15.7617C14 15.2419 14.3838 14.8206 14.8571 14.8206ZM19.1429 15.5264H14.8571C14.7388 15.5264 14.6429 15.6318 14.6429 15.7617V17.4088C14.6429 17.5387 14.7388 17.6441 14.8571 17.6441H19.1429C19.2612 17.6441 19.3571 17.5387 19.3571 17.4088V15.7617C19.3571 15.6318 19.2612 15.5264 19.1429 15.5264Z" />
</svg>
