<svg width="24" height="24" viewBox="0 0 24 24" fill="none" xmlns="http://www.w3.org/2000/svg">
<path d="M15.1265 4.25356L19.6186 8.87129C21.4605 10.7641 21.4605 13.8069 19.6186 15.6997L15.6819 19.746C15.355 20.0817 14.8207 20.0853 14.4903 19.7531C14.1599 19.421 14.1564 18.8781 14.4833 18.5424L18.4165 14.4961C19.6081 13.2712 19.6081 11.3034 18.4165 10.0784L13.9279 5.46067C13.6011 5.12497 13.6046 4.58213 13.935 4.24999C14.2654 3.91786 14.7996 3.92143 15.1265 4.25714V4.25356ZM3 11.0534V5.71424C3 4.76783 3.75571 4 4.68717 4H9.942C10.5395 4 11.1125 4.23928 11.5343 4.66784L17.4394 10.6677C18.3181 11.5605 18.3181 13.0069 17.4394 13.8997L12.7469 18.6674C11.8682 19.5603 10.4446 19.5603 9.56591 18.6674L3.66081 12.6676C3.2355 12.239 3 11.6605 3 11.0534ZM8.06151 7.99988C8.06151 7.69679 7.94301 7.40611 7.73207 7.19179C7.52113 6.97746 7.23504 6.85706 6.93673 6.85706C6.63842 6.85706 6.35233 6.97746 6.14139 7.19179C5.93045 7.40611 5.81195 7.69679 5.81195 7.99988C5.81195 8.30298 5.93045 8.59366 6.14139 8.80798C6.35233 9.0223 6.63842 9.14271 6.93673 9.14271C7.23504 9.14271 7.52113 9.0223 7.73207 8.80798C7.94301 8.59366 8.06151 8.30298 8.06151 7.99988Z" />
</svg>
