<svg width="24" height="24" viewBox="0 0 24 24" xmlns="http://www.w3.org/2000/svg">
  <path d="M6 6.5C5.725 6.5 5.5 6.725 5.5 7V17C5.5 17.275 5.725 17.5 6 17.5H18C18.275 17.5 18.5 17.275 18.5 17V7C18.5 6.725 18.275 6.5 18 6.5H6ZM4 7C4 5.897 4.897 5 6 5H18C19.103 5 20 5.897 20 7V17C20 18.103 19.103 19 18 19H6C4.897 19 4 18.103 4 17V7ZM10 10C10 9.46957 10.2107 8.96086 10.5858 8.58579C10.9609 8.21071 11.4696 8 12 8C12.5304 8 13.0391 8.21071 13.4142 8.58579C13.7893 8.96086 14 9.46957 14 10C14 10.5304 13.7893 11.0391 13.4142 11.4142C13.0391 11.7893 12.5304 12 12 12C11.4696 12 10.9609 11.7893 10.5858 11.4142C10.2107 11.0391 10 10.5304 10 10ZM8.5 15.144C8.5 13.959 9.46 13 10.644 13H13.359C14.544 13 15.503 13.96 15.503 15.144C15.5019 15.3707 15.4114 15.5878 15.2511 15.7481C15.0908 15.9084 14.8737 15.9989 14.647 16H9.357C9.13013 15.9992 8.91275 15.9088 8.75223 15.7485C8.59172 15.5881 8.50105 15.3709 8.5 15.144Z" />
</svg>
