<svg width="24" height="24" viewBox="0 0 24 24" xmlns="http://www.w3.org/2000/svg">
  <path d="M6.4 8.75C6.4 7.88805 6.73714 7.0614 7.33726 6.4519C7.93737 5.84241 8.75131 5.5 9.6 5.5C10.4487 5.5 11.2626 5.84241 11.8627 6.4519C12.4629 7.0614 12.8 7.88805 12.8 8.75C12.8 9.61195 12.4629 10.4386 11.8627 11.0481C11.2626 11.6576 10.4487 12 9.6 12C8.75131 12 7.93737 11.6576 7.33726 11.0481C6.73714 10.4386 6.4 9.61195 6.4 8.75ZM4 17.7464C3.99987 17.1519 4.11506 16.5631 4.33898 16.0138C4.56291 15.4645 4.89119 14.9654 5.30507 14.5449C5.71896 14.1245 6.21034 13.791 6.75115 13.5634C7.29196 13.3359 7.87161 13.2188 8.457 13.2188H10.742C11.3275 13.2186 11.9072 13.3356 12.4482 13.5631C12.9891 13.7906 13.4806 14.1241 13.8946 14.5446C14.3086 14.965 14.6369 15.4642 14.8609 16.0136C15.0849 16.563 15.2001 17.1518 15.2 17.7464C15.2 18.1628 14.868 18.5 14.458 18.5H4.742C4.54529 18.4997 4.35671 18.4202 4.21762 18.279C4.07852 18.1377 4.00026 17.9462 4 17.7464ZM18.821 10.7884C19.0605 10.7883 19.2942 10.7142 19.4912 10.5759C19.6882 10.4377 19.839 10.2417 19.9237 10.0142C20.0083 9.78674 20.0228 9.53846 19.9651 9.30243C19.9074 9.0664 19.7803 8.85381 19.6007 8.69293C19.4211 8.53206 19.1976 8.43053 18.9598 8.40187C18.722 8.3732 18.4813 8.41874 18.2696 8.53245C18.0579 8.64615 17.8853 8.82262 17.7748 9.03837C17.6643 9.25412 17.6211 9.49894 17.651 9.74024L16.496 10.3263C16.3295 10.1631 16.1194 10.0533 15.8918 10.0106C15.6643 9.96782 15.4294 9.99402 15.2165 10.0859C15.0035 10.1778 14.8219 10.3313 14.6942 10.5272C14.5665 10.7232 14.4984 10.953 14.4984 11.188C14.4984 11.423 14.5665 11.6528 14.6942 11.8488C14.8219 12.0448 15.0035 12.1983 15.2165 12.2901C15.4294 12.382 15.6643 12.4082 15.8918 12.3655C16.1194 12.3227 16.3295 12.2129 16.496 12.0498L17.651 12.6348C17.6162 12.9151 17.6802 13.1988 17.8315 13.4358C17.9828 13.6729 18.2118 13.8479 18.478 13.9301C18.7441 14.0122 19.0302 13.9961 19.2858 13.8847C19.5414 13.7732 19.75 13.5736 19.8747 13.3211C19.9994 13.0686 20.0321 12.7794 19.9672 12.5047C19.9022 12.23 19.7437 11.9875 19.5197 11.82C19.2957 11.6526 19.0206 11.5709 18.743 11.5895C18.4655 11.6082 18.2034 11.7259 18.003 11.9218L16.849 11.3358C16.862 11.2374 16.862 11.1376 16.849 11.0392L18.004 10.4532C18.215 10.6614 18.504 10.7884 18.821 10.7884Z" />
</svg>
