<svg width="25" height="24" viewBox="0 0 25 24" xmlns="http://www.w3.org/2000/svg">
<path d="M8 4C8.41563 4 8.75 4.33437 8.75 4.75V6H13.25V4.75C13.25 4.33437 13.5844 4 14 4C14.4156 4 14.75 4.33437 14.75 4.75V6H16C17.1031 6 18 6.89688 18 8V10H5.5V18C5.5 18.275 5.725 18.5 6 18.5H12.8906C13.275 19.0875 13.7656 19.5969 14.3375 20H6C4.89688 20 4 19.1031 4 18V8C4 6.89688 4.89688 6 6 6H7.25V4.75C7.25 4.33437 7.58437 4 8 4ZM17.5 11C18.6935 11 19.8381 11.4741 20.682 12.318C21.5259 13.1619 22 14.3065 22 15.5C22 16.6935 21.5259 17.8381 20.682 18.682C19.8381 19.5259 18.6935 20 17.5 20C16.3065 20 15.1619 19.5259 14.318 18.682C13.4741 17.8381 13 16.6935 13 15.5C13 14.3065 13.4741 13.1619 14.318 12.318C15.1619 11.4741 16.3065 11 17.5 11ZM17.5 18.5C17.6989 18.5 17.8897 18.421 18.0303 18.2803C18.171 18.1397 18.25 17.9489 18.25 17.75C18.25 17.5511 18.171 17.3603 18.0303 17.2197C17.8897 17.079 17.6989 17 17.5 17C17.3011 17 17.1103 17.079 16.9697 17.2197C16.829 17.3603 16.75 17.5511 16.75 17.75C16.75 17.9489 16.829 18.1397 16.9697 18.2803C17.1103 18.421 17.3011 18.5 17.5 18.5ZM17.5 12.5C17.225 12.5 17 12.725 17 13V15.5C17 15.775 17.225 16 17.5 16C17.775 16 18 15.775 18 15.5V13C18 12.725 17.775 12.5 17.5 12.5Z" />
</svg>
