<svg width="24" height="24" viewBox="0 0 24 24" fill="none" xmlns="http://www.w3.org/2000/svg">
<path d="M4.51001 5.7618C4.51001 5.33964 4.84965 5 5.27181 5H6.28755C6.70972 5 7.04935 5.33964 7.04935 5.7618V9.57082H7.55722C7.97939 9.57082 8.31903 9.91045 8.31903 10.3326C8.31903 10.7548 7.97939 11.0944 7.55722 11.0944H5.01788C4.59571 11.0944 4.25608 10.7548 4.25608 10.3326C4.25608 9.91045 4.59571 9.57082 5.01788 9.57082H5.52575V6.52361H5.27181C4.84965 6.52361 4.51001 6.18397 4.51001 5.7618ZM6.50022 14.8146C6.2939 14.5797 5.91935 14.5955 5.73842 14.8526L5.38291 15.3446C5.1385 15.6875 4.66237 15.7668 4.31956 15.5224C3.97675 15.278 3.8974 14.8019 4.14181 14.4591L4.49414 13.9639C5.24642 12.9101 6.78907 12.8339 7.64293 13.8083C8.31903 14.5828 8.30315 15.7414 7.60801 16.4969L6.5034 17.6967H7.55722C7.97939 17.6967 8.31903 18.0363 8.31903 18.4585C8.31903 18.8807 7.97939 19.2203 7.55722 19.2203H4.76395C4.4624 19.2203 4.18625 19.0426 4.06563 18.7632C3.94501 18.4839 3.99897 18.1633 4.20212 17.9411L6.48753 15.4653C6.65576 15.2812 6.65893 15.0018 6.49705 14.8146H6.50022ZM10.6044 6.26967H19.2382C19.6604 6.26967 20 6.60931 20 7.03147C20 7.45364 19.6604 7.79328 19.2382 7.79328H10.6044C10.1823 7.79328 9.84263 7.45364 9.84263 7.03147C9.84263 6.60931 10.1823 6.26967 10.6044 6.26967ZM10.6044 11.3484H19.2382C19.6604 11.3484 20 11.688 20 12.1102C20 12.5323 19.6604 12.872 19.2382 12.872H10.6044C10.1823 12.872 9.84263 12.5323 9.84263 12.1102C9.84263 11.688 10.1823 11.3484 10.6044 11.3484ZM10.6044 16.427H19.2382C19.6604 16.427 20 16.7667 20 17.1888C20 17.611 19.6604 17.9506 19.2382 17.9506H10.6044C10.1823 17.9506 9.84263 17.611 9.84263 17.1888C9.84263 16.7667 10.1823 16.427 10.6044 16.427Z"/>
</svg>