<svg width="25" height="24" viewBox="0 0 25 24" xmlns="http://www.w3.org/2000/svg">
  <path d="M8 4C8.41563 4 8.75 4.33438 8.75 4.75V6H13.25V4.75C13.25 4.33438 13.5844 4 14 4C14.4156 4 14.75 4.33438 14.75 4.75V6H16C17.1031 6 18 6.89688 18 8V10H5.5V18C5.5 18.275 5.725 18.5 6 18.5H14.0156C14.4 19.0875 14.8906 19.5969 15.4625 20H6C4.89688 20 4 19.1031 4 18V8C4 6.89688 4.89688 6 6 6H7.25V4.75C7.25 4.33438 7.58438 4 8 4Z" />
  <path d="M19.8304 17.8805H17.4196V17.0864H19.8304V17.8805ZM19.8304 12.8511H17.4196V12.057H19.8304V12.8511ZM16.2143 10.4688H21.0357C21.5683 10.4688 22 10.9428 22 11.5276V13.3805C22 13.9653 21.5683 14.4393 21.0357 14.4393H16.2143C15.6817 14.4393 15.25 13.9653 15.25 13.3805V11.5276C15.25 10.9428 15.6817 10.4688 16.2143 10.4688ZM21.0357 11.2629H16.2143C16.0811 11.2629 15.9732 11.3814 15.9732 11.5276V13.3805C15.9732 13.5267 16.0811 13.6452 16.2143 13.6452H21.0357C21.1688 13.6452 21.2768 13.5267 21.2768 13.3805V11.5276C21.2768 11.3814 21.1688 11.2629 21.0357 11.2629ZM16.2143 15.4982H21.0357C21.5683 15.4982 22 15.9722 22 16.557V18.4099C22 18.9947 21.5683 19.4688 21.0357 19.4688H16.2143C15.6817 19.4688 15.25 18.9947 15.25 18.4099V16.557C15.25 15.9722 15.6817 15.4982 16.2143 15.4982ZM21.0357 16.2923H16.2143C16.0811 16.2923 15.9732 16.4108 15.9732 16.557V18.4099C15.9732 18.5561 16.0811 18.6746 16.2143 18.6746H21.0357C21.1688 18.6746 21.2768 18.5561 21.2768 18.4099V16.557C21.2768 16.4108 21.1688 16.2923 21.0357 16.2923Z" />
</svg>
