<!-- Uploaded to: SVG Repo, www.svgrepo.com, Generator: SVG Repo Mixer Tools -->
<svg fill="#000000" height="800px" width="800px" version="1.1" id="Layer_1" xmlns="http://www.w3.org/2000/svg" xmlns:xlink="http://www.w3.org/1999/xlink" 
	 viewBox="0 0 512 512" xml:space="preserve">
<g>
	<g>
		<g>
			<path d="M0,490.667C0,502.443,9.536,512,21.333,512h469.333c11.797,0,21.333-9.557,21.333-21.333v-320H0V490.667z
				 M368.917,292.416c-8.341-8.341-8.341-21.824,0-30.165s21.824-8.341,30.165,0l42.667,42.667c8.341,8.341,8.341,21.824,0,30.165
				l-42.667,42.667c-4.16,4.16-9.621,6.251-15.083,6.251c-5.461,0-10.923-2.091-15.083-6.251c-8.341-8.341-8.341-21.824,0-30.165
				L396.501,320L368.917,292.416z M192,234.667h128c11.797,0,21.333,9.557,21.333,21.333s-9.536,21.333-21.333,21.333H192
				c-11.797,0-21.333-9.557-21.333-21.333S180.203,234.667,192,234.667z M192,298.667h128c11.797,0,21.333,9.557,21.333,21.333
				s-9.536,21.333-21.333,21.333H192c-11.797,0-21.333-9.557-21.333-21.333S180.203,298.667,192,298.667z M192,362.667h128
				c11.797,0,21.333,9.557,21.333,21.333s-9.536,21.333-21.333,21.333H192c-11.797,0-21.333-9.557-21.333-21.333
				S180.203,362.667,192,362.667z M70.251,304.917l42.667-42.667c8.341-8.341,21.824-8.341,30.165,0
				c8.341,8.341,8.341,21.824,0,30.165L115.499,320l27.584,27.584c8.341,8.341,8.341,21.824,0,30.165
				c-4.16,4.16-9.621,6.251-15.083,6.251c-5.461,0-10.923-2.091-15.083-6.251l-42.667-42.667
				C61.909,326.741,61.909,313.259,70.251,304.917z"/>
			<path d="M490.667,0H21.333C9.536,0,0,9.557,0,21.333V128h512V21.333C512,9.557,502.464,0,490.667,0z M85.333,106.667
				C73.557,106.667,64,97.109,64,85.333S73.557,64,85.333,64s21.333,9.557,21.333,21.333S97.109,106.667,85.333,106.667z
				 M149.333,106.667c-11.776,0-21.333-9.557-21.333-21.333S137.557,64,149.333,64s21.333,9.557,21.333,21.333
				S161.109,106.667,149.333,106.667z M213.333,106.667c-11.776,0-21.333-9.557-21.333-21.333S201.557,64,213.333,64
				s21.333,9.557,21.333,21.333S225.109,106.667,213.333,106.667z"/>
		</g>
	</g>
</g>
</svg>