<svg width="24" height="24" viewBox="0 0 24 24" fill="none" xmlns="http://www.w3.org/2000/svg">
<path d="M4 5.75523V11.222C4 11.8437 4.24506 12.4397 4.68396 12.8785L11.1213 19.3144C12.0357 20.2285 13.517 20.2285 14.4314 19.3144L19.3142 14.4326C20.2286 13.5185 20.2286 12.0375 19.3142 11.1233L12.8769 4.68746C12.438 4.24866 11.8418 4.00366 11.22 4.00366L5.75563 4C4.78638 4 4 4.7862 4 5.75523ZM8.09647 6.92538C8.40688 6.92538 8.70458 7.04866 8.92408 7.26811C9.14358 7.48756 9.26689 7.78519 9.26689 8.09553C9.26689 8.40588 9.14358 8.70351 8.92408 8.92295C8.70458 9.1424 8.40688 9.26568 8.09647 9.26568C7.78605 9.26568 7.48835 9.1424 7.26886 8.92295C7.04936 8.70351 6.92605 8.40588 6.92605 8.09553C6.92605 7.78519 7.04936 7.48756 7.26886 7.26811C7.48835 7.04866 7.78605 6.92538 8.09647 6.92538Z" />
</svg>
