<svg width="24" height="24" viewBox="0 0 24 24" xmlns="http://www.w3.org/2000/svg">
<path d="M11.1111 5C10.1306 5 9.33333 5.78477 9.33333 6.75V17.25C9.33333 18.2152 10.1306 19 11.1111 19H18.2222C19.2028 19 20 18.2152 20 17.25V6.75C20 5.78477 19.2028 5 18.2222 5H11.1111ZM6.66667 6.96875V17.0313C6.66667 17.3949 6.96389 17.6875 7.33333 17.6875C7.70278 17.6875 8 17.3949 8 17.0313V6.96875C8 6.60508 7.70278 6.3125 7.33333 6.3125C6.96389 6.3125 6.66667 6.60508 6.66667 6.96875ZM4 8.28125V15.7187C4 16.0824 4.29722 16.375 4.66667 16.375C5.03611 16.375 5.33333 16.0824 5.33333 15.7187V8.28125C5.33333 7.91758 5.03611 7.625 4.66667 7.625C4.29722 7.625 4 7.91758 4 8.28125Z"/>
</svg>
