<svg width="24" height="24" viewBox="0 0 24 24" fill="none" xmlns="http://www.w3.org/2000/svg">
<path d="M5.2875 6C4.57812 6 4 6.57812 4 7.2875C4 7.6125 4.12188 7.925 4.34375 8.16563L7.25 11.2937V15.2312C7.25 15.65 7.45937 16.0437 7.8125 16.275L10.1719 17.8313C10.3375 17.9406 10.5344 18 10.7344 18C11.2969 18 11.7531 17.5437 11.7531 16.9812V11.2937L14.6594 8.16563C14.8813 7.92813 15.0031 7.61562 15.0031 7.2875C15 6.57812 14.4219 6 13.7125 6H5.2875ZM8.55 10.4906L5.775 7.5H13.225L10.45 10.4906C10.3219 10.6281 10.25 10.8125 10.25 11V16.0875L8.75 15.0969V11C8.75 10.8094 8.67813 10.6281 8.55 10.4906ZM14.75 16.25C14.3344 16.25 14 16.5844 14 17C14 17.4156 14.3344 17.75 14.75 17.75H19.25C19.6656 17.75 20 17.4156 20 17C20 16.5844 19.6656 16.25 19.25 16.25H14.75ZM14 12C14 12.4156 14.3344 12.75 14.75 12.75H19.25C19.6656 12.75 20 12.4156 20 12C20 11.5844 19.6656 11.25 19.25 11.25H14.75C14.3344 11.25 14 11.5844 14 12ZM16.75 6.25C16.3344 6.25 16 6.58437 16 7C16 7.41563 16.3344 7.75 16.75 7.75H19.25C19.6656 7.75 20 7.41563 20 7C20 6.58437 19.6656 6.25 19.25 6.25H16.75Z"/>
</svg>