<svg width="24" height="24" viewBox="0 0 24 24" fill="none" xmlns="http://www.w3.org/2000/svg">
<path d="M11.222 4C11.8437 4 12.4397 4.245 12.8785 4.68381L19.3144 11.1196C20.2285 12.0338 20.2285 13.5148 19.3144 14.429L14.4326 19.3107C13.5185 20.2249 12.0375 20.2249 11.1233 19.3107L4.68746 12.8749C4.245 12.4361 4 11.8437 4 11.222V5.75523C4 4.7862 4.7862 4 5.75523 4H11.222ZM5.75523 11.222C5.75523 11.3756 5.81739 11.5255 5.92709 11.6352L12.3629 18.0711C12.5896 18.2978 12.9626 18.2978 13.1894 18.0711L18.0711 13.1894C18.2978 12.9626 18.2978 12.5896 18.0711 12.3629L11.6352 5.92709C11.5255 5.81739 11.3756 5.75523 11.222 5.75523H5.75523V11.222ZM8.09553 6.92538C8.40588 6.92538 8.70351 7.04866 8.92295 7.26811C9.1424 7.48756 9.26568 7.78519 9.26568 8.09553C9.26568 8.40588 9.1424 8.70351 8.92295 8.92295C8.70351 9.1424 8.40588 9.26568 8.09553 9.26568C7.78519 9.26568 7.48756 9.1424 7.26811 8.92295C7.04866 8.70351 6.92538 8.40588 6.92538 8.09553C6.92538 7.78519 7.04866 7.48756 7.26811 7.26811C7.48756 7.04866 7.78519 6.92538 8.09553 6.92538Z" />
</svg>
