<svg width="24" height="24" viewBox="0 0 24 24" fill="none" xmlns="http://www.w3.org/2000/svg">
<path d="M4 6.30312C4 5.58437 4.58438 5 5.30313 5H18.6969C19.4156 5 20 5.58437 20 6.30312C20 6.60312 19.8969 6.89375 19.7063 7.125L14.5 13.5156V17.9906C14.5 18.5469 14.0469 19 13.4906 19C13.2625 19 13.0406 18.9219 12.8625 18.7812L9.97188 16.4875C9.67188 16.25 9.5 15.8906 9.5 15.5094V13.5156L4.29375 7.125C4.10312 6.89375 4 6.60312 4 6.30312ZM5.71875 6.5L10.8313 12.775C10.9406 12.9094 11 13.075 11 13.25V15.3875L13 16.975V13.25C13 13.0781 13.0594 12.9094 13.1687 12.775L18.2812 6.5H5.71875Z"/>
</svg>