<svg width="24" height="24" viewBox="0 0 24 24" xmlns="http://www.w3.org/2000/svg">
  <path d="M18.222 7.28544H8.444C8.2 7.28544 8 7.4783 8 7.71456V13.7146C8 13.9499 8.2 14.1427 8.444 14.1427H10.222C10.222 13.1977 11.019 12.4291 12 12.4291H14.667C15.647 12.4291 16.444 13.1977 16.444 14.1427H18.222C18.467 14.1427 18.667 13.9499 18.667 13.7146V7.71456C18.667 7.4783 18.467 7.28544 18.222 7.28544ZM8.444 6.00096H18.222C19.202 6.00096 20 6.76953 20 7.71553V13.7155C19.9995 14.1701 19.812 14.6059 19.4787 14.9273C19.1453 15.2488 18.6934 15.4296 18.222 15.4301H8.444C7.97278 15.4293 7.5211 15.2484 7.18799 14.927C6.85489 14.6056 6.66753 14.1699 6.667 13.7155V7.71456C6.667 6.76953 7.464 6.00096 8.444 6.00096ZM4.667 7.71456C5.037 7.71456 5.333 8.00096 5.333 8.3568V14.3578C5.333 14.6673 5.39625 14.9739 5.51913 15.2599C5.64202 15.5459 5.82213 15.8058 6.04918 16.0246C6.27624 16.2435 6.54578 16.4171 6.84241 16.5354C7.13905 16.6538 7.45697 16.7147 7.778 16.7146H16.667C17.037 16.7146 17.333 17.001 17.333 17.3578C17.333 17.7146 17.036 18 16.667 18H7.777C6.77552 17.9992 5.81529 17.6153 5.10714 16.9324C4.39898 16.2495 4.00079 15.3235 4 14.3578V8.3568C4 8 4.297 7.71456 4.667 7.71456ZM11.556 9.85728C11.5504 9.62876 11.5922 9.40147 11.679 9.18876C11.7658 8.97606 11.8958 8.78224 12.0614 8.6187C12.2271 8.45517 12.4249 8.32522 12.6434 8.23649C12.8618 8.14777 13.0965 8.10206 13.3335 8.10206C13.5705 8.10206 13.8052 8.14777 14.0236 8.23649C14.2421 8.32522 14.4399 8.45517 14.6056 8.6187C14.7712 8.78224 14.9012 8.97606 14.988 9.18876C15.0748 9.40147 15.1166 9.62876 15.111 9.85728C15.1 10.3048 14.9079 10.7305 14.5757 11.0433C14.2436 11.3561 13.7978 11.5312 13.3335 11.5312C12.8692 11.5312 12.4234 11.3561 12.0913 11.0433C11.7591 10.7305 11.567 10.3048 11.556 9.85728Z" />
</svg>
