<svg width="24" height="24" viewBox="0 0 24 24" xmlns="http://www.w3.org/2000/svg">
<path d="M8.57143 3C9.04643 3 9.42857 3.37617 9.42857 3.84375V5.25H14.5714V3.84375C14.5714 3.37617 14.9536 3 15.4286 3C15.9036 3 16.2857 3.37617 16.2857 3.84375V5.25H17.7143C18.975 5.25 20 6.25898 20 7.5V8.0625V9.75V18.75C20 19.991 18.975 21 17.7143 21H6.28571C5.025 21 4 19.991 4 18.75V9.75V8.0625V7.5C4 6.25898 5.025 5.25 6.28571 5.25H7.71429V3.84375C7.71429 3.37617 8.09643 3 8.57143 3ZM18.2857 9.75H5.71429V18.75C5.71429 19.0594 5.97143 19.3125 6.28571 19.3125H17.7143C18.0286 19.3125 18.2857 19.0594 18.2857 18.75V9.75ZM14.8929 12.8789L13.2143 14.5312L14.8929 16.1836C15.2286 16.5141 15.2286 17.0484 14.8929 17.3754C14.5571 17.7023 14.0143 17.7059 13.6821 17.3754L12.0036 15.723L10.325 17.3754C9.98929 17.7059 9.44643 17.7059 9.11429 17.3754C8.78214 17.0449 8.77857 16.5105 9.11429 16.1836L10.7929 14.5312L9.11429 12.8789C8.77857 12.5484 8.77857 12.0141 9.11429 11.6871C9.45 11.3602 9.99286 11.3566 10.325 11.6871L12.0036 13.3395L13.6821 11.6871C14.0179 11.3566 14.5607 11.3566 14.8929 11.6871C15.225 12.0176 15.2286 12.552 14.8929 12.8789Z" />
</svg>
