<svg width="24" height="24" viewBox="0 0 24 24" xmlns="http://www.w3.org/2000/svg">
<path fill-rule="evenodd" clip-rule="evenodd" d="M11.1109 19C10.9951 19 10.8818 18.989 10.772 18.9681C9.9531 18.812 9.33315 18.1012 9.33315 17.25V6.75C9.33315 5.78477 10.1304 5 11.1109 5H18.222C19.2026 5 20 5.78477 20 6.75V17.25C20 18.2152 19.2028 19 18.2222 19H11.1109ZM6.66667 6.96875V17.0313C6.66667 17.3949 6.96389 17.6875 7.33333 17.6875C7.70278 17.6875 8 17.3949 8 17.0313V6.96875C8 6.60508 7.70278 6.3125 7.33333 6.3125C6.96389 6.3125 6.66667 6.60508 6.66667 6.96875ZM4 8.28125V15.7187C4 16.0824 4.29722 16.375 4.66667 16.375C5.03611 16.375 5.33333 16.0824 5.33333 15.7187V8.28125C5.33333 7.91758 5.03611 7.625 4.66667 7.625C4.29722 7.625 4 7.91758 4 8.28125ZM11.0859 6.125C10.7703 6.125 10.5145 6.37684 10.5145 6.6875V17.3075C10.5145 17.6182 10.7703 17.87 11.0859 17.87H18.3202C18.6358 17.87 18.8917 17.6182 18.8917 17.3075V6.6875C18.8917 6.37684 18.6358 6.125 18.3202 6.125H11.0859Z"/>
</svg>
