<svg width="24" height="24" viewBox="0 0 24 24"><path d="M19 14.5H8C7.725 14.5 7.5 14.275 7.5 14V7C7.5 6.725 7.725 6.5 8 6.5H11.6719C11.8031 6.5 11.9312 6.55312 12.025 6.64687L12.8531 7.475C13.5094 8.13125 14.4 8.5 15.3281 8.5H19C19.275 8.5 19.5 8.725 19.5 9V14C19.5 14.275 19.275 14.5 19 14.5ZM8 16H19C20.1031 16 21 15.1031 21 14V9C21 7.89688 20.1031 7 19 7H15.3281C14.7969 7 14.2875 6.79063 13.9125 6.41563L13.0844 5.58438C12.7094 5.20938 12.2 5 11.6687 5H8C6.89688 5 6 5.89688 6 7V14C6 15.1031 6.89688 16 8 16ZM4.5 7.75C4.5 7.33437 4.16563 7 3.75 7C3.33437 7 3 7.33437 3 7.75V14.75C3 17.0969 4.90313 19 7.25 19H17.25C17.6656 19 18 18.6656 18 18.25C18 17.8344 17.6656 17.5 17.25 17.5H7.25C5.73125 17.5 4.5 16.2687 4.5 14.75V7.75Z"/></svg>
