<svg xmlns="http://www.w3.org/2000/svg" width="24" height="24" style="fill:#d20962" viewBox="0 0 256 256">
  <path d="M31.655 75.399c-7.226 0-12.408 1.013-15.542 3.04-3.518 2.277-5.277 6.403-5.277 12.378v23.047c0 7.255-3.134 11.327-9.404 12.216v3.84c6.27.926 9.404 5.033 9.404 12.324v22.831c0 5.265 1.32 9.07 3.958 11.418 3.059 2.738 8.68 4.108 16.86 4.108h1.493v-3.682h-.69c-5.43 0-9.25-.764-11.469-2.294-2.523-1.707-3.784-4.96-3.784-9.762v-22.725c0-6.793-3.614-11.523-10.84-14.19 7.226-2.525 10.84-7.22 10.84-14.083V91.137c0-4.233.936-7.22 2.808-8.963 2.18-2.027 6.328-3.04 12.446-3.04h.689v-3.735zm191.2 0v3.735h.689c6.116 0 10.264 1.013 12.444 3.04 1.872 1.743 2.808 4.73 2.808 8.963v22.727c0 6.863 3.614 11.558 10.84 14.082-7.226 2.668-10.84 7.399-10.84 14.19v22.727c0 4.801-1.261 8.055-3.784 9.762-2.217 1.53-6.04 2.295-11.47 2.295h-.687v3.681h1.49c8.182 0 13.803-1.37 16.86-4.108 2.639-2.348 3.959-6.153 3.959-11.418v-22.831c0-7.291 3.134-11.398 9.404-12.324v-3.84c-6.27-.89-9.404-4.96-9.404-12.216V90.817c0-5.975-1.759-10.101-5.277-12.378-3.134-2.027-8.316-3.04-15.542-3.04z"/>
  <path d="M90.217 142.324q0 11.397-8.854 18.546-8.807 7.097-23.958 7.097-8.76 0-15.293-1.658-6.487-1.71-12.168-4.3v-18.494h1.988q5.634 4.922 12.595 7.564 7.007 2.642 13.446 2.642 1.657 0 4.356-.311t4.403-1.036q2.084-.933 3.41-2.331 1.373-1.4 1.373-4.145 0-2.538-1.989-4.351-1.941-1.865-5.73-2.85-3.976-1.036-8.427-1.916-4.403-.933-8.286-2.331-8.901-3.16-12.83-8.548-3.883-5.44-3.883-13.47 0-10.774 8.806-17.56 8.854-6.839 22.727-6.839 6.96 0 13.73 1.503 6.819 1.45 11.79 3.678v17.768h-1.941q-4.261-3.73-10.464-6.216-6.155-2.538-12.594-2.538-2.273 0-4.545.362-2.226.311-4.31 1.243-1.846.778-3.171 2.383-1.326 1.555-1.326 3.575 0 3.056 2.13 4.714 2.131 1.606 8.05 2.953 3.882.88 7.433 1.71 3.599.828 7.718 2.279 8.096 2.9 11.931 7.926 3.883 4.973 3.883 12.95zm62.972-37.973h-32.433v14.35h30.065v14.92h-30.065v32.947h-18.087V89.432h50.52zm72.867 38.594q0 5.595-2.083 9.999-2.036 4.403-5.634 7.304-4.167 3.419-9.186 4.87-4.971 1.45-12.641 1.45h-30.776V89.432h27.367q8.522 0 12.452.622 3.977.621 7.86 2.745 4.024 2.228 5.965 6.01 1.99 3.73 1.99 8.547-.001 5.595-2.7 9.895-2.699 4.248-7.623 6.63v.415q6.913 1.502 10.938 6.216 4.071 4.715 4.071 12.433zm-23.294-31.704q0-1.916-.9-3.833-.852-1.917-3.078-2.85-1.988-.828-4.971-.88-2.936-.104-8.286-.104h-1.704v16.319h2.84q4.309 0 7.34-.156 3.03-.155 4.781-1.036 2.462-1.191 3.22-3.056.758-1.917.758-4.404zm4.45 31.394q0-3.678-1.326-5.647-1.278-2.02-4.403-3.005-2.13-.673-5.87-.725-3.741-.052-7.813-.052h-3.977v19.22h1.325q7.67 0 10.985-.052 3.314-.052 6.108-1.347 2.84-1.295 3.882-3.419 1.09-2.176 1.09-4.973z" aria-label="SFB"/>
</svg>
